<svg width="24" height="24" viewBox="0 0 24 24" fill="none" xmlns="http://www.w3.org/2000/svg">
<path fill-rule="evenodd" clip-rule="evenodd" d="M6.74263 0C3.01878 0 0 3.01878 0 6.74263V17.2574C0 20.9812 3.01878 24 6.74263 24H17.2574C20.9812 24 24 20.9812 24 17.2574V6.74263C24 3.01878 20.9812 0 17.2574 0H6.74263ZM6.64874 2.21618C4.20089 2.21618 2.21652 4.20056 2.21652 6.64841V17.3517C2.21652 19.7996 4.20089 21.784 6.64874 21.784H17.3049C19.7528 21.784 21.7371 19.7996 21.7371 17.3517V6.6484C21.7371 4.20056 19.7528 2.21618 17.3049 2.21618H6.64874Z" fill="#959698"/>
<path fill-rule="evenodd" clip-rule="evenodd" d="M11.9999 18.2003C15.3982 18.2003 18.1531 15.4454 18.1531 12.047C18.1531 8.6487 15.3982 5.8938 11.9999 5.8938C8.60155 5.8938 5.84665 8.6487 5.84665 12.047C5.84665 15.4454 8.60155 18.2003 11.9999 18.2003ZM11.9995 16.0314C14.226 16.0314 16.0309 14.2264 16.0309 11.9999C16.0309 9.77344 14.226 7.96851 11.9995 7.96851C9.77298 7.96851 7.96805 9.77344 7.96805 11.9999C7.96805 14.2264 9.77298 16.0314 11.9995 16.0314Z" fill="#959698"/>
<circle cx="18.4598" cy="5.58753" r="1.43811" fill="#959698"/>
</svg>
