<svg width="58" height="25" viewBox="0 0 58 25" fill="none" xmlns="http://www.w3.org/2000/svg">
<rect width="58" height="24.0415" fill="#EC111A"/>
<path d="M1.95349 2.40405V21.6372H5.40945L5.55971 13.0724L7.0623 21.6372H9.01567L10.5183 13.0724V21.6372H17.1297L17.5804 18.7823H20.2851L20.7359 21.6372H27.4975V15.4766H28.2488L29.7514 21.6372H33.2074L31.1038 14.4248C32.288 13.2353 32.8474 12.4376 33.2074 10.2175L35.1607 21.6372H39.368L42.0727 4.65794V21.6372H48.6841V18.1813H45.5286V13.8237H48.6841V10.2175H45.5286V6.01027H48.6841V2.40405H38.9172L37.2644 14.7253L35.912 2.40405H32.0053L32.3058 5.25898C31.7048 3.75638 29.7514 2.40405 28.5493 2.40405H23.8913V19.2331L21.4872 2.40405H16.6789L14.1245 19.8341V2.40405H9.6167L7.96385 11.8704L6.311 2.40405H1.95349Z" fill="white"/>
<path d="M49.2851 21.6372V2.40405H52.7411V18.3315H55.7462V21.6372H49.2851Z" fill="white"/>
<path d="M19.0831 7.66308L18.0312 15.3263H20.1349L19.0831 7.66308Z" fill="#EC111A"/>
<path d="M27.4976 11.7201V5.70972C28.8815 6.14666 29.7515 6.91179 29.7515 8.86516C29.7515 10.2175 28.9046 11.5298 27.4976 11.7201Z" fill="#EC111A"/>
</svg>
