<svg width="32" height="24" viewBox="0 0 32 24" fill="none" xmlns="http://www.w3.org/2000/svg">
<path d="M1.73534 16.7959L10.7267 13.4614V16.5901L5.55358 18.319C4.75904 18.6373 4.60358 18.8665 4.97879 19.3894C5.43045 19.801 7.03165 19.7187 7.9759 19.3894L10.7267 18.319V21.036C9.74133 21.2666 8.29067 21.3242 7.68851 21.3242C4.67223 21.338 1.27082 20.2432 0.708934 19.7187C-0.48168 18.6072 -0.194256 17.5369 1.73534 16.7959Z" fill="white"/>
<path d="M11.7531 0V22.3945L16.762 24V4.98113C16.8473 4.29201 17.0092 4.01479 17.7063 3.91081C18.2014 3.86046 18.8928 4.6067 18.8558 4.98113V13.4614C19.5217 13.8567 19.9748 13.981 20.9086 14.0377C23.318 13.8542 24.3899 13.2371 24.5627 8.9331C24.5799 5.89887 23.8535 4.5069 20.9086 2.71698C17.5229 1.21824 15.496 0.674251 11.7531 0Z" fill="white"/>
<path d="M17.7063 18.8542V15.7667C19.2795 15.2885 20.2136 15.0712 22.0993 14.9022C24.3985 14.6963 26.8208 14.7376 30.4748 16.2607C31.5833 16.7228 32.3634 18.4837 29.1199 19.7187L17.7063 23.753V20.7067L25.9996 17.825C26.9916 17.4713 27.0671 17.0017 26.4102 16.7959C25.507 16.4666 24.6038 16.5077 23.7415 16.7959L17.7063 18.8542Z" fill="white"/>
</svg>
