<svg width="69" height="96" viewBox="0 0 69 96" fill="none" xmlns="http://www.w3.org/2000/svg">
<path class="logo-spiderman" fill-rule="evenodd" clip-rule="evenodd" d="M28.8068 39.727L28.6869 39.0077C20.3288 38.7338 15.6612 39.0042 7.35242 39.8469C6.00227 30.2218 7.46996 25.5204 12.2665 17.9056C9.90047 25.2605 9.38612 29.2961 10.7084 36.25L28.5671 37.2092L28.9267 36.6097C24.9918 34.0704 22.4418 32.9053 17.5403 31.0944C15.6442 17.4118 18.191 11.2828 24.2522 1C20.5618 10.9492 19.3714 16.8354 21.136 28.6964L30.0054 34.9311L30.7245 34.2117L28.5671 31.574C29.7156 29.5945 30.5939 29.0393 32.2826 28.3367C31.6361 29.4372 31.2831 30.0629 31.0841 31.574L32.4025 32.773H36.2379C38.3672 31.5892 37.7747 30.4651 36.2379 28.3367C38.0311 28.7207 38.9459 29.4625 40.4329 31.574L38.1556 34.3316L38.7549 35.051L47.6243 28.9362C49.0978 19.0689 48.8954 13.1445 44.3882 1C52.0549 10.9879 52.4754 17.9204 51.22 30.9745L39.9535 36.6097L40.1932 37.2092L57.932 36.3699C59.128 29.3385 58.581 25.2719 56.4937 17.9056L56.5711 18.0245C59.0887 21.8945 60.5052 24.072 61.4079 28.3367C61.7107 32.6128 61.6217 34.6038 61.5093 37.1158C61.474 37.9056 61.4363 38.747 61.4079 39.727L40.1932 39.0077L40.0733 39.8469C51.5771 41.0372 57.5187 42.6028 68 45.602C64.0604 74.6932 58.3062 81.2588 45.1073 95C55.4627 78.785 60.612 69.3729 61.4079 48.4796C53.3353 45.1582 48.5959 43.4616 39.3542 41.0459L38.9946 41.6454L57.4526 50.8776C56.2587 66.5964 54.1631 74.4168 47.025 86.0077C51.6689 73.4919 53.2064 66.165 53.2576 52.3163C47.8671 48.4855 44.5051 46.4076 38.3953 42.7245L38.0358 43.0842L45.5868 48.8393C45.8167 52.9458 45.7415 55.0942 45.5868 58.9107C42.3721 65.33 39.7896 67.6199 34.5599 70.6607C28.9795 67.5913 26.59 65.2607 23.1735 59.0306C23.1543 58.6467 23.1357 58.2789 23.1179 57.9255C22.9243 54.0957 22.8156 51.9455 22.9338 49.0791L31.0841 43.0842L30.6047 42.3648L15.5027 52.3163C15.6786 66.9512 17.6606 73.9489 21.8551 86.0077C15.0037 73.8892 12.2917 66.4552 11.5474 50.8776C19.1694 46.7226 23.3155 44.611 30.2451 41.6454L29.7657 40.8061L7.35242 47.7602C7.37051 47.9722 7.38847 48.1831 7.40635 48.3929C8.83611 65.1727 9.65424 74.7745 23.8927 95C7.21729 79.1788 5.11848 67.7888 1.85411 50.0734C1.58067 48.5895 1.29905 47.0612 1 45.4821C12.4228 42.3478 18.1179 40.9899 28.8068 39.727ZM25.0912 49.4388L29.4061 45.3622L26.6494 49.4388C26.5516 52.1306 26.5996 53.6147 27.1288 56.1531C29.286 59.6907 30.757 61.3357 34.3202 63.5867C37.2724 62.2839 38.7299 60.1758 41.1746 56.6402C41.2849 56.4807 41.3971 56.3184 41.5116 56.1531C41.5581 55.9043 41.6034 55.6665 41.6473 55.4364C42.0123 53.5218 42.276 52.1384 42.2308 49.4388L39.5939 45.4821L43.9088 49.4388L42.9499 58.1913C40.7623 62.5016 38.4521 64.0666 34.2004 66.9439C29.9446 64.3973 28.0708 62.4409 25.6905 57.9515L25.0912 49.4388Z" fill="#C4C4C4"/>
<path class="logo-spiderman" d="M56.4937 17.9056C58.581 25.2719 59.128 29.3385 57.932 36.3699L40.1932 37.2092L39.9535 36.6097L51.22 30.9745C52.4754 17.9204 52.0549 10.9879 44.3882 1C48.8954 13.1445 49.0978 19.0689 47.6243 28.9362L38.7549 35.051L38.1556 34.3316L40.4329 31.574C38.9459 29.4625 38.0311 28.7207 36.2379 28.3367C37.7747 30.4651 38.3672 31.5892 36.2379 32.773H32.4025L31.0841 31.574C31.2831 30.0629 31.6361 29.4372 32.2826 28.3367C30.5939 29.0393 29.7156 29.5945 28.5671 31.574L30.7245 34.2117L30.0054 34.9311L21.136 28.6964C19.3714 16.8354 20.5618 10.9492 24.2522 1C18.191 11.2828 15.6442 17.4118 17.5403 31.0944C22.4418 32.9053 24.9918 34.0704 28.9267 36.6097L28.5671 37.2092L10.7084 36.25C9.38612 29.2961 9.90047 25.2605 12.2665 17.9056C7.46996 25.5204 6.00227 30.2218 7.35241 39.8469C15.6612 39.0042 20.3288 38.7338 28.6869 39.0077L28.8068 39.727C18.1179 40.9899 12.4228 42.3478 1 45.4821C1.29905 47.0612 1.58067 48.5895 1.85411 50.0734C5.11848 67.7888 7.21729 79.1788 23.8927 95C9.65424 74.7745 8.83611 65.1727 7.40635 48.3929C7.38847 48.1831 7.37051 47.9722 7.35241 47.7602L29.7657 40.8061L30.2451 41.6454C23.3155 44.611 19.1694 46.7226 11.5474 50.8776C12.2917 66.4552 15.0037 73.8892 21.8551 86.0077C17.6606 73.9489 15.6786 66.9512 15.5027 52.3163L30.6047 42.3648L31.0841 43.0842L22.9338 49.0791C22.8156 51.9455 22.9243 54.0957 23.1179 57.9255C23.1357 58.2789 23.1543 58.6467 23.1735 59.0306C26.59 65.2607 28.9795 67.5913 34.5599 70.6607C39.7896 67.6199 42.3721 65.33 45.5868 58.9107C45.7415 55.0942 45.8167 52.9458 45.5868 48.8393L38.0358 43.0842L38.3953 42.7245C44.5051 46.4076 47.8671 48.4855 53.2576 52.3163C53.2064 66.165 51.6689 73.4919 47.025 86.0077C54.1631 74.4168 56.2587 66.5964 57.4526 50.8776L38.9946 41.6454L39.3542 41.0459C48.5959 43.4616 53.3353 45.1582 61.4079 48.4796C60.612 69.3729 55.4627 78.785 45.1073 95C58.3062 81.2588 64.0604 74.6932 68 45.602C57.5187 42.6028 51.5771 41.0372 40.0733 39.8469L40.1932 39.0077L61.4079 39.727C61.4363 38.747 61.474 37.9056 61.5093 37.1158C61.6217 34.6038 61.7107 32.6128 61.4079 28.3367C60.5052 24.072 59.0887 21.8945 56.5711 18.0245M56.4937 17.9056L56.5711 18.0245M56.4937 17.9056C56.5196 17.9454 56.5454 17.9851 56.5711 18.0245M39.5939 45.4821L43.9088 49.4388L42.9499 58.1913C40.7623 62.5016 38.4521 64.0666 34.2004 66.9439C29.9446 64.3973 28.0708 62.4409 25.6905 57.9515L25.0912 49.4388L29.4061 45.3622L26.6494 49.4388C26.5516 52.1306 26.5996 53.6147 27.1288 56.1531C29.286 59.6907 30.757 61.3357 34.3202 63.5867C37.2724 62.2839 38.7299 60.1758 41.1746 56.6402C41.2849 56.4807 41.3971 56.3184 41.5116 56.1531C41.5581 55.9043 41.6034 55.6665 41.6473 55.4364C42.0123 53.5218 42.276 52.1384 42.2308 49.4388M39.5939 45.4821C40.6237 47.0273 41.201 47.8936 42.2308 49.4388M39.5939 45.4821L42.2308 49.4388" stroke="black"/>
</svg>
